<svg width="138" height="157" viewBox="0 0 138 157" fill="none" xmlns="http://www.w3.org/2000/svg">
<path d="M138 120.908L137.985 120.916L72.8551 157.474L1.53596 121.528L0.306946 120.908L4.00836 46.2859L68.4132 0.0198669L69.124 0.467765L135.779 42.5548L138 120.908Z" fill="#262112" fill-opacity="0.35"/>
<path opacity="0.3" d="M137.985 120.916L72.8551 157.474L1.53595 121.528L64.7117 76.8815L137.985 120.916Z" fill="#414141"/>
<path opacity="0.1" d="M138 120.908L64.7117 76.8814L69.124 0.467758L135.779 42.5548L138 120.908Z" fill="#FFD600"/>
<path d="M3.06027 69.3126L2.69832 68.7961L67.822 22.4602L136.616 65.9381L136.283 66.474L67.8423 23.2194L3.06027 69.3126Z" fill="#FFD600"/>
<path d="M1.79795 94.664L1.44591 94.1412L66.2392 49.7983L66.4089 49.8954L136.674 90.0384L136.364 90.5884L66.2689 50.5421L1.79795 94.664Z" fill="#FFD600"/>
<path d="M26.5198 134.306L26.1894 133.768L91.4901 92.9804V14.7883H92.1172V93.3325L26.5198 134.306Z" fill="#FFD600"/>
<path d="M52.1502 147.222L51.8171 146.686L114.694 106.932V29.4391H115.321V107.282L52.1502 147.222Z" fill="#FFD600"/>
<path d="M114.457 134.313L41.3309 93.3571L41.3413 93.1601L45.1908 16.4614L45.817 16.4937L41.9774 92.9954L114.762 133.761L114.457 134.313Z" fill="#FFD600"/>
<path d="M91.4504 147.234L19.1454 109.039L19.1566 108.837L23.419 32.0998L24.0452 32.1352L19.7946 108.669L91.7417 146.674L91.4504 147.234Z" fill="#FFD600"/>
</svg>
