<svg width="149" height="128" viewBox="0 0 149 128" fill="none" xmlns="http://www.w3.org/2000/svg">
<g clip-path="url(#clip0)">
<path d="M43.7882 126.664C46.1801 124.636 47.633 121.432 47.252 118.313C46.871 115.193 44.5111 112.326 41.4499 111.664C38.3888 111.001 34.8993 112.835 33.9695 115.836C33.4578 110.05 32.8682 104.022 29.8031 99.0952C27.0277 94.6339 22.2207 91.4418 17.011 90.8707C11.8012 90.2996 6.31607 92.4565 3.06695 96.583C-0.182163 100.71 -0.977693 106.709 1.2979 111.446C2.97425 114.936 6.06268 117.534 9.29859 119.647C19.755 126.417 32.296 129.17 44.6143 127.4" fill="#F2F2F2"/>
<path d="M8.21877 92.5761C12.5174 96.0898 16.461 100.02 19.9924 104.309C25.5191 110.998 29.9914 118.498 33.2534 126.548C33.4922 127.135 32.542 127.39 32.3059 126.81C30.2315 121.721 27.6651 116.848 24.6434 112.261C19.9314 105.095 14.1587 98.6927 7.52395 93.2734C7.0334 92.8725 7.73226 92.1785 8.21877 92.5761V92.5761Z" fill="#946614"/>
<path d="M45.4403 126.664C43.0484 124.636 41.5955 121.432 41.9766 118.313C42.3576 115.193 44.7175 112.326 47.7786 111.664C50.8397 111.001 54.3292 112.835 55.259 115.836C55.7707 110.05 56.3603 104.022 59.4255 99.0952C62.2008 94.6339 67.0079 91.4418 72.2176 90.8707C77.4273 90.2996 82.9125 92.4565 86.1616 96.583C89.4107 100.71 90.2062 106.709 87.9306 111.446C86.2543 114.936 83.1659 117.534 79.93 119.647C69.4736 126.417 56.9325 129.17 44.6143 127.4" fill="#F2F2F2"/>
<path d="M81.0098 92.5761C76.7111 96.0898 72.7675 100.02 69.2361 104.309C63.7094 110.998 59.2372 118.498 55.9751 126.548C55.7364 127.135 56.6865 127.39 56.9227 126.81C62.2599 113.728 70.7803 102.197 81.7046 93.2734C82.1952 92.8725 81.4963 92.1785 81.0098 92.5761V92.5761Z" fill="#946614"/>
<path d="M52.5382 57.5806C56.9632 57.5806 60.5504 53.9807 60.5504 49.54C60.5504 45.0994 56.9632 41.4995 52.5382 41.4995C48.1132 41.4995 44.5261 45.0994 44.5261 49.54C44.5261 53.9807 48.1132 57.5806 52.5382 57.5806Z" fill="#F2F2F2"/>
<path d="M27.8346 21.823H83.0361V24.8538H34.8815C32.0502 24.8538 29.2466 25.4134 26.6309 26.5007C24.0151 27.5881 21.6383 29.1818 19.6363 31.1909C17.6342 33.2 16.0461 35.5852 14.9626 38.2103C13.8791 40.8353 13.3215 43.6488 13.3215 46.4902V80.924H7.2812C7.01421 80.924 6.75815 80.8176 6.56936 80.6281C6.38056 80.4386 6.2745 80.1817 6.27449 79.9137V43.4593C6.27449 40.618 6.83216 37.8045 7.91565 35.1794C8.99915 32.5544 10.5873 30.1692 12.5893 28.1601C14.5913 26.151 16.9681 24.5572 19.5839 23.4699C22.1997 22.3826 25.0033 21.8229 27.8346 21.823V21.823Z" fill="#F2F2F2"/>
<path d="M38.4523 126.833V80.7943H51.8921V126.833C51.8917 127.142 51.7691 127.439 51.551 127.658C51.333 127.877 51.0374 128 50.729 128H39.6154C39.307 128 39.0114 127.877 38.7934 127.658C38.5753 127.439 38.4527 127.142 38.4523 126.833Z" fill="#1F1F1F"/>
<path d="M3.43147 79.8865V42.4502C3.43818 36.4906 5.80024 30.777 9.99945 26.5629C14.1987 22.3488 19.8921 19.9784 25.8307 19.9716H82.7776V81.1834H4.72376C4.38114 81.183 4.05268 81.0462 3.81041 80.8031C3.56815 80.56 3.43186 80.2304 3.43147 79.8865V79.8865ZM82.2607 20.4904H25.8307C20.0291 20.497 14.4671 22.8127 10.3648 26.9296C6.2625 31.0464 3.95494 36.6281 3.94839 42.4502V79.8865C3.94861 80.0928 4.03037 80.2906 4.17573 80.4365C4.3211 80.5824 4.51818 80.6644 4.72376 80.6646H82.2607V20.4904Z" fill="#3F3D56"/>
<path d="M52.5382 53.69C51.3048 53.6886 50.1223 53.1962 49.2501 52.321C48.378 51.4458 47.8874 50.2591 47.886 49.0213V15.5623C47.8858 15.356 47.804 15.1582 47.6586 15.0123C47.5133 14.8665 47.3162 14.7844 47.1106 14.7842H29.0187C28.676 14.7838 28.3476 14.647 28.1053 14.4039C27.8631 14.1608 27.7268 13.8312 27.7264 13.4873V1.29686C27.7268 0.953033 27.8631 0.623402 28.1053 0.38028C28.3476 0.137158 28.676 0.000398146 29.0187 0H55.8982C56.2408 0.000393351 56.5692 0.137153 56.8115 0.380276C57.0538 0.623399 57.19 0.953031 57.1904 1.29686V49.0213C57.189 50.2591 56.6985 51.4458 55.8263 52.321C54.9541 53.1962 53.7716 53.6886 52.5382 53.69Z" fill="#946614"/>
<path d="M84.8453 19.4529C88.7443 19.4447 92.4868 20.9912 95.2496 23.7521C98.0124 26.5131 99.5691 30.2624 99.5773 34.1752V76.7925H128.524C129.687 76.7901 130.803 77.2513 131.627 78.0747C132.451 78.8982 132.916 80.0164 132.918 81.1834H70.1133V34.1752C70.1214 30.2624 71.6781 26.5131 74.4409 23.7521C77.2037 20.9912 80.9463 19.4447 84.8453 19.4529Z" fill="#1F1F1F"/>
<path d="M81.3101 43.7217L84.3606 56.3676L144.033 41.8709L140.983 29.225C140.946 29.0703 140.871 28.9276 140.764 28.8099C140.658 28.6922 140.523 28.6035 140.374 28.5519C140.263 28.5128 140.146 28.4952 140.029 28.4998L105.535 10.5767C105.333 10.4731 105.101 10.4455 104.88 10.4987C104.659 10.5519 104.465 10.6826 104.332 10.867L87.708 34.131L81.4409 42.9037C81.4296 42.9191 81.4216 42.9367 81.4176 42.9555C81.4137 42.9742 81.4138 42.9935 81.4179 43.0122C81.2904 43.2252 81.2516 43.4802 81.3101 43.7217V43.7217Z" fill="white"/>
<path d="M81.4179 43.0122C81.4209 43.0287 81.427 43.0444 81.4361 43.0584C81.4451 43.0725 81.4567 43.0846 81.4704 43.0941C81.4866 43.1053 81.5049 43.113 81.5242 43.1168C81.5434 43.1206 81.5632 43.1204 81.5824 43.1163C81.6136 43.108 81.641 43.089 81.6597 43.0625L81.6812 43.0326L82.0075 42.5747L87.9336 34.2841L104.553 11.0254C104.647 10.8936 104.786 10.8002 104.944 10.7624C105.101 10.7245 105.267 10.7445 105.411 10.8188L139.637 28.6031L139.945 28.7631C139.957 28.7683 139.97 28.7728 139.983 28.7765C140.006 28.7722 140.029 28.77 140.053 28.7697C140.085 28.7589 140.112 28.7362 140.128 28.7062C140.136 28.6905 140.141 28.6732 140.143 28.6554C140.144 28.6376 140.143 28.6196 140.137 28.6026C140.132 28.5855 140.124 28.5696 140.112 28.5559C140.101 28.5421 140.087 28.5308 140.071 28.5224L140.029 28.4998L105.535 10.5767C105.333 10.4731 105.101 10.4455 104.88 10.4987C104.659 10.5519 104.465 10.6826 104.332 10.867L87.708 34.131L81.4409 42.9037C81.4296 42.9191 81.4216 42.9367 81.4176 42.9554C81.4137 42.9742 81.4138 42.9935 81.4179 43.0122V43.0122Z" fill="#3F3D56"/>
<path d="M99.3395 44.3017L100.668 44.4496L110.526 45.5455L117.061 46.2716L117.447 46.3147L125.602 39.9225L125.915 39.6776L127.841 38.1681L134.693 32.7974L134.734 32.4202L137.172 10.344C137.205 10.04 137.117 9.73519 136.926 9.49639C136.736 9.25759 136.459 9.10428 136.156 9.07007L103.628 5.45398C103.325 5.42078 103.021 5.50939 102.784 5.7004C102.546 5.89142 102.393 6.16927 102.359 6.4731L100.64 22.0452L99.6863 30.6786L98.8334 38.4022L98.438 41.9892L98.3227 43.0281C98.2898 43.3322 98.3783 43.637 98.5689 43.8757C98.7595 44.1145 99.0366 44.2676 99.3395 44.3017V44.3017Z" fill="#E6E6E6"/>
<path d="M108.278 24.951L122.368 26.5171L127.365 27.0723C127.586 27.0968 127.809 27.0775 128.022 27.0155C128.236 26.9534 128.434 26.8498 128.608 26.7106C128.781 26.5714 128.925 26.3993 129.032 26.2041C129.139 26.0089 129.207 25.7945 129.231 25.5732C129.256 25.3518 129.237 25.1277 129.175 24.9138C129.113 24.6998 129.01 24.5002 128.871 24.3263C128.732 24.1525 128.561 24.0077 128.366 23.9003C128.172 23.7929 127.958 23.725 127.737 23.7005L121.522 23.0098L108.651 21.5775C108.206 21.5281 107.759 21.6583 107.409 21.9395C107.059 22.2208 106.834 22.6299 106.785 23.0771C106.735 23.5243 106.865 23.9729 107.145 24.3243C107.425 24.6757 107.833 24.9011 108.278 24.951Z" fill="white"/>
<path d="M107.476 31.206C107.512 31.2125 107.549 31.219 107.586 31.2226L123.942 33.0411L126.673 33.3453C127.119 33.3948 127.566 33.2645 127.916 32.9832C128.266 32.7019 128.49 32.2926 128.54 31.8453C128.589 31.398 128.459 30.9493 128.179 30.598C127.899 30.2468 127.491 30.0216 127.045 29.9721L123.096 29.5337L110.14 28.093L107.959 27.8505C107.523 27.8017 107.085 27.9249 106.738 28.1942C106.391 28.4635 106.162 28.8577 106.099 29.2935C106.036 29.7293 106.145 30.1725 106.402 30.5294C106.659 30.8863 107.044 31.1289 107.476 31.206V31.206Z" fill="white"/>
<path d="M105.625 36.7524C105.759 36.9757 105.942 37.165 106.161 37.3056C106.38 37.4462 106.628 37.5343 106.886 37.563L113.59 38.3081L125.53 39.6356L125.533 39.635L125.915 39.6777L127.841 38.1681C127.853 38.0534 127.853 37.9378 127.841 37.8231C127.8 37.438 127.63 37.0784 127.358 36.8037C127.086 36.529 126.729 36.3558 126.345 36.3125L124.687 36.1276L118.107 35.3969L113.373 34.87L107.258 34.1899C106.945 34.1551 106.628 34.2089 106.343 34.3453C106.059 34.4818 105.818 34.6953 105.648 34.9619C105.478 35.2285 105.386 35.5374 105.382 35.8538C105.378 36.1702 105.462 36.4814 105.625 36.7524L105.625 36.7524Z" fill="white"/>
<path d="M115.041 17.3052L118.547 17.6948L120.095 17.8674L122.435 18.1272C122.88 18.1767 123.327 18.0464 123.677 17.7651C124.027 17.4838 124.252 17.0745 124.301 16.6272C124.35 16.1799 124.221 15.7312 123.94 15.38C123.66 15.0287 123.252 14.8035 122.806 14.7541L115.415 13.933C114.969 13.8833 114.522 14.0133 114.172 14.2944C113.822 14.5754 113.597 14.9845 113.548 15.4317C113.498 15.8789 113.628 16.3275 113.908 16.6788C114.188 17.0302 114.596 17.2555 115.041 17.3052V17.3052Z" fill="white"/>
<path d="M86.3745 26.6976L90.6486 44.4163L97.7824 45.7775L104.381 47.0383L111.461 48.3903L113.724 48.8223C113.856 48.8474 113.992 48.844 114.123 48.8121C114.254 48.7803 114.377 48.7208 114.483 48.6377L116.298 47.2152L117.447 46.3147L125.602 39.9225L120.417 18.4274C120.366 18.2136 120.254 18.0191 120.095 17.8674C119.956 17.7332 119.786 17.6363 119.599 17.5856C119.413 17.535 119.217 17.5322 119.029 17.5776L87.2212 25.305C86.925 25.3772 86.6695 25.5644 86.5107 25.8255C86.3519 26.0866 86.3029 26.4003 86.3745 26.6976Z" fill="#946614"/>
<path d="M96.1752 40.7935C96.281 41.2305 96.5554 41.6076 96.938 41.8419C97.3206 42.0762 97.7802 42.1486 98.2159 42.0431L116.88 37.5089C117.316 37.4024 117.691 37.1271 117.925 36.7432C118.158 36.3593 118.23 35.8982 118.125 35.4609C118.121 35.4392 118.115 35.4179 118.107 35.3969C117.988 34.9754 117.711 34.6165 117.334 34.3954C116.957 34.1744 116.509 34.1084 116.085 34.2113L97.4205 38.7455C96.9849 38.8517 96.6092 39.127 96.3757 39.511C96.1422 39.8949 96.0701 40.3562 96.1752 40.7935Z" fill="white"/>
<path d="M97.7823 45.7775L104.381 47.0383L118.36 43.6424C118.796 43.5366 119.172 43.2613 119.405 42.8773C119.639 42.4932 119.711 42.0318 119.605 41.5945C119.5 41.1572 119.225 40.7799 118.843 40.5455C118.46 40.3112 118 40.239 117.564 40.3448L98.9 44.8791C98.51 44.9731 98.1664 45.2042 97.9315 45.5305C97.8749 45.6085 97.825 45.6911 97.7823 45.7775Z" fill="white"/>
<path d="M111.461 48.3903L113.724 48.8223C113.856 48.8474 113.992 48.8439 114.123 48.8121C114.254 48.7803 114.377 48.7208 114.483 48.6377L116.298 47.2152L111.461 48.3903Z" fill="white"/>
<path d="M99.9359 31.2923C100.042 31.7294 100.316 32.1065 100.699 32.3408C101.081 32.5751 101.541 32.6475 101.977 32.542L109.206 30.7858C109.641 30.6794 110.017 30.404 110.25 30.0201C110.484 29.6362 110.556 29.1751 110.451 28.7378C110.395 28.5029 110.289 28.2829 110.14 28.093C109.94 27.8362 109.67 27.6427 109.364 27.5354C109.057 27.4282 108.726 27.4118 108.41 27.4882L101.181 29.2444C100.745 29.3503 100.37 29.6256 100.136 30.0096C99.9025 30.3937 99.8305 30.8551 99.9359 31.2923V31.2923Z" fill="white"/>
<path d="M104.381 47.0382L111.462 48.3905L113.724 48.8227C113.856 48.8475 113.992 48.8439 114.123 48.8121C114.254 48.7803 114.376 48.721 114.483 48.6382L116.299 47.2153L115.662 47.3702L114.316 48.4235C114.24 48.4826 114.153 48.525 114.059 48.5477C113.966 48.5704 113.868 48.573 113.774 48.5553L112.099 48.2356L105.018 46.8834L104.381 47.0382ZM125.532 39.636L125.601 39.9218L125.915 39.6767L125.532 39.636ZM104.381 47.0382L111.462 48.3905L113.724 48.8227C113.856 48.8475 113.992 48.8439 114.123 48.8121C114.254 48.7803 114.376 48.721 114.483 48.6382L116.299 47.2153L115.662 47.3702L114.316 48.4235C114.24 48.4826 114.153 48.525 114.059 48.5477C113.966 48.5704 113.868 48.573 113.774 48.5553L112.099 48.2356L105.018 46.8834L104.381 47.0382ZM104.381 47.0382L111.462 48.3905L113.724 48.8227C113.856 48.8475 113.992 48.8439 114.123 48.8121C114.254 48.7803 114.376 48.721 114.483 48.6382L116.299 47.2153L115.662 47.3702L114.316 48.4235C114.24 48.4826 114.153 48.525 114.059 48.5477C113.966 48.5704 113.868 48.573 113.774 48.5553L112.099 48.2356L105.018 46.8834L104.381 47.0382ZM81.3101 43.7217L89.3005 76.8461C89.3598 77.0908 89.5135 77.302 89.7278 77.4332C89.942 77.5644 90.1994 77.605 90.4434 77.5459L148.276 63.4963C148.52 63.4368 148.73 63.2827 148.861 63.0676C148.992 62.8526 149.032 62.5943 148.973 62.3494L140.983 29.225C140.946 29.0703 140.871 28.9276 140.764 28.8099C140.658 28.6922 140.523 28.6035 140.373 28.5519C140.263 28.5128 140.146 28.4952 140.029 28.4998C139.892 28.5038 139.758 28.5391 139.637 28.6031C139.582 28.6297 139.529 28.6625 139.48 28.7009L134.734 32.4202L127.841 37.8238L125.532 39.634L125.532 39.636L125.53 39.6365L117.062 46.2707L115.662 47.3702L114.316 48.4235C114.24 48.4826 114.153 48.525 114.059 48.5477C113.966 48.5704 113.868 48.573 113.774 48.5553L112.099 48.2356L105.018 46.8834L97.9306 45.5306L82.4074 42.566C82.2751 42.5397 82.1386 42.5427 82.0075 42.5747C81.831 42.618 81.6706 42.7112 81.5453 42.8434C81.4974 42.8953 81.4547 42.9518 81.4179 43.0122C81.2904 43.2252 81.2516 43.4802 81.3101 43.7217V43.7217ZM104.381 47.0382L111.462 48.3905L113.724 48.8227C113.856 48.8475 113.992 48.8439 114.123 48.8121C114.254 48.7803 114.376 48.721 114.483 48.6382L116.299 47.2153L115.662 47.3702L114.316 48.4235C114.24 48.4826 114.153 48.525 114.059 48.5477C113.966 48.5704 113.868 48.573 113.774 48.5553L112.099 48.2356L105.018 46.8834L104.381 47.0382ZM104.381 47.0382L111.462 48.3905L113.724 48.8227C113.856 48.8475 113.992 48.8439 114.123 48.8121C114.254 48.7803 114.376 48.721 114.483 48.6382L116.299 47.2153L115.662 47.3702L114.316 48.4235C114.24 48.4826 114.153 48.525 114.059 48.5477C113.966 48.5704 113.868 48.573 113.774 48.5553L112.099 48.2356L105.018 46.8834L104.381 47.0382ZM104.381 47.0382L111.462 48.3905L113.724 48.8227C113.856 48.8475 113.992 48.8439 114.123 48.8121C114.254 48.7803 114.376 48.721 114.483 48.6382L116.299 47.2153L115.662 47.3702L114.316 48.4235C114.24 48.4826 114.153 48.525 114.059 48.5477C113.966 48.5704 113.868 48.573 113.774 48.5553L112.099 48.2356L105.018 46.8834L104.381 47.0382Z" fill="white"/>
<path d="M104.381 47.0382L111.462 48.3905L113.724 48.8227C113.856 48.8475 113.992 48.8439 114.123 48.8121C114.254 48.7803 114.376 48.721 114.483 48.6382L116.299 47.2153L115.662 47.3702L114.316 48.4235C114.24 48.4826 114.153 48.525 114.059 48.5477C113.966 48.5704 113.868 48.573 113.774 48.5553L112.099 48.2356L105.018 46.8834L104.381 47.0382ZM125.532 39.636L125.601 39.9218L125.915 39.6767L125.532 39.636ZM104.381 47.0382L111.462 48.3905L113.724 48.8227C113.856 48.8475 113.992 48.8439 114.123 48.8121C114.254 48.7803 114.376 48.721 114.483 48.6382L116.299 47.2153L115.662 47.3702L114.316 48.4235C114.24 48.4826 114.153 48.525 114.059 48.5477C113.966 48.5704 113.868 48.573 113.774 48.5553L112.099 48.2356L105.018 46.8834L104.381 47.0382ZM104.381 47.0382L111.462 48.3905L113.724 48.8227C113.856 48.8475 113.992 48.8439 114.123 48.8121C114.254 48.7803 114.376 48.721 114.483 48.6382L116.299 47.2153L115.662 47.3702L114.316 48.4235C114.24 48.4826 114.153 48.525 114.059 48.5477C113.966 48.5704 113.868 48.573 113.774 48.5553L112.099 48.2356L105.018 46.8834L104.381 47.0382ZM81.6812 43.0326L81.7163 43.0591C81.7222 43.0494 81.7324 43.0408 81.7402 43.0306C81.8185 42.9488 81.9158 42.8878 82.0234 42.8531C82.131 42.8183 82.2455 42.8109 82.3566 42.8315L97.7828 45.7764L104.381 47.0382L111.462 48.3904L113.724 48.8227C113.856 48.8475 113.992 48.8439 114.123 48.8121C114.254 48.7803 114.376 48.721 114.483 48.6382L116.299 47.2153L115.662 47.3701L114.316 48.4235C114.24 48.4826 114.153 48.525 114.059 48.5477C113.966 48.5704 113.868 48.573 113.774 48.5552L112.099 48.2356L105.018 46.8834L97.9306 45.5306L82.4074 42.566C82.2751 42.5397 82.1386 42.5427 82.0075 42.5747L81.6812 43.0326ZM81.3101 43.7217L89.3005 76.8461C89.3598 77.0908 89.5135 77.302 89.7278 77.4332C89.942 77.5644 90.1994 77.605 90.4434 77.5459L148.276 63.4963C148.52 63.4368 148.73 63.2827 148.861 63.0676C148.992 62.8526 149.032 62.5943 148.973 62.3494L140.983 29.225C140.946 29.0703 140.871 28.9276 140.764 28.8099C140.658 28.6922 140.523 28.6035 140.373 28.5519C140.263 28.5128 140.146 28.4952 140.029 28.4998C139.892 28.5038 139.758 28.5391 139.637 28.6031C139.582 28.6297 139.529 28.6625 139.48 28.7009L134.734 32.4202L127.841 37.8238L125.532 39.634L125.532 39.636L125.53 39.6365L117.062 46.2707L115.662 47.3702L114.316 48.4235C114.24 48.4826 114.153 48.525 114.059 48.5477C113.966 48.5704 113.868 48.573 113.774 48.5553L112.099 48.2356L105.018 46.8834L97.9306 45.5306L82.4074 42.566C82.2751 42.5397 82.1386 42.5427 82.0075 42.5747C81.831 42.618 81.6706 42.7112 81.5453 42.8434C81.4974 42.8953 81.4547 42.9518 81.4179 43.0122C81.2904 43.2252 81.2516 43.4801 81.3101 43.7217V43.7217ZM81.5736 43.6576C81.55 43.56 81.5485 43.4583 81.5691 43.36C81.5898 43.2617 81.6321 43.1693 81.6929 43.0895C81.6984 43.0777 81.7064 43.0674 81.7163 43.0591C81.7222 43.0494 81.7324 43.0408 81.7402 43.0306C81.8185 42.9489 81.9158 42.8878 82.0234 42.8531C82.131 42.8183 82.2455 42.8109 82.3566 42.8315L97.7828 45.7764L104.381 47.0382L111.462 48.3905L113.724 48.8227C113.856 48.8475 113.992 48.8439 114.123 48.8121C114.254 48.7803 114.376 48.721 114.483 48.6382L116.299 47.2153L117.448 46.3148L125.601 39.9218L125.915 39.6767L127.84 38.1678L134.694 32.7964L139.649 28.9132C139.724 28.8542 139.811 28.8121 139.904 28.7895C139.93 28.7831 139.956 28.7787 139.983 28.7765C140.006 28.7722 140.029 28.77 140.053 28.7697C140.132 28.769 140.211 28.7819 140.286 28.8078C140.392 28.8452 140.488 28.9087 140.564 28.9926C140.64 29.0766 140.694 29.1783 140.721 29.2885L148.712 62.4129C148.733 62.4997 148.737 62.5898 148.723 62.6781C148.709 62.7663 148.678 62.851 148.632 62.9273C148.585 63.0035 148.525 63.0699 148.453 63.1225C148.381 63.1751 148.299 63.2129 148.213 63.2339L90.3801 77.2835C90.2057 77.3256 90.0217 77.2964 89.8686 77.2024C89.7156 77.1083 89.606 76.9571 89.5641 76.782L81.5736 43.6576ZM104.381 47.0382L111.462 48.3905L113.724 48.8227C113.856 48.8475 113.992 48.8439 114.123 48.8121C114.254 48.7803 114.376 48.721 114.483 48.6382L116.299 47.2153L115.662 47.3702L114.316 48.4235C114.24 48.4826 114.153 48.525 114.059 48.5477C113.966 48.5704 113.868 48.573 113.774 48.5553L112.099 48.2356L105.018 46.8834L104.381 47.0382ZM104.381 47.0382L111.462 48.3905L113.724 48.8227C113.856 48.8475 113.992 48.8439 114.123 48.8121C114.254 48.7803 114.376 48.721 114.483 48.6382L116.299 47.2153L115.662 47.3702L114.316 48.4235C114.24 48.4826 114.153 48.525 114.059 48.5477C113.966 48.5704 113.868 48.573 113.774 48.5553L112.099 48.2356L105.018 46.8834L104.381 47.0382ZM104.381 47.0382L111.462 48.3905L113.724 48.8227C113.856 48.8475 113.992 48.8439 114.123 48.8121C114.254 48.7803 114.376 48.721 114.483 48.6382L116.299 47.2153L115.662 47.3702L114.316 48.4235C114.24 48.4826 114.153 48.525 114.059 48.5477C113.966 48.5704 113.868 48.573 113.774 48.5553L112.099 48.2356L105.018 46.8834L104.381 47.0382Z" fill="#3F3D56"/>
<path d="M133.203 56.9885C133.073 56.4457 133.162 55.8733 133.452 55.3967C133.742 54.9201 134.208 54.5783 134.749 54.4463L142.048 52.6731C142.588 52.5439 143.157 52.6348 143.631 52.9259C144.104 53.217 144.443 53.6845 144.574 54.2261C144.705 54.7676 144.616 55.3391 144.328 55.8153C144.039 56.2915 143.575 56.6335 143.035 56.7665L135.736 58.5398C135.195 58.6705 134.625 58.5806 134.15 58.2898C133.675 57.999 133.335 57.531 133.203 56.9885Z" fill="#946614"/>
<path d="M52.5382 50.8369C53.5374 50.8369 54.3474 50.024 54.3474 49.0213C54.3474 48.0185 53.5374 47.2057 52.5382 47.2057C51.539 47.2057 50.729 48.0185 50.729 49.0213C50.729 50.024 51.539 50.8369 52.5382 50.8369Z" fill="white"/>
</g>
<defs>
<clipPath id="clip0">
<rect width="149" height="128" fill="white"/>
</clipPath>
</defs>
</svg>
