<svg width="169" height="137" viewBox="0 0 169 137" fill="none" xmlns="http://www.w3.org/2000/svg">
<path d="M26.8375 0L15.6625 21.8115H17.9184V39.598H6.54962L0 52.3814L81.1545 94.0178L107.992 41.6364L26.8375 0Z" fill="#946614"/>
<path d="M148.898 14.1887H24.478V76.653H148.898V14.1887Z" fill="#1F1F1F"/>
<path opacity="0.3" d="M133.769 36.6335H41.9349V36.8452H133.769V36.6335Z" fill="#201604"/>
<path opacity="0.3" d="M133.875 41.9271H42.0407V42.1388H133.875V41.9271Z" fill="white"/>
<path opacity="0.3" d="M133.875 52.5143H42.0407V52.726H133.875V52.5143Z" fill="#201604"/>
<path opacity="0.3" d="M133.875 57.1726H42.0407V57.3844H133.875V57.1726Z" fill="#201604"/>
<path opacity="0.3" d="M133.875 47.2207H42.0407V47.4324H133.875V47.2207Z" fill="#201604"/>
<path d="M119.909 137C141.646 137 159.266 135.388 159.266 133.4C159.266 131.412 141.646 129.801 119.909 129.801C98.1726 129.801 80.5517 131.412 80.5517 133.4C80.5517 135.388 98.1726 137 119.909 137Z" fill="#1F1F1F"/>
<path d="M44.5885 57.326L44.2965 57.0194L57.966 43.9817L70.0157 52.6552L79.7601 41.8444L84.0329 45.4787L95.6558 38.5001L108.566 47.1835L128.829 35.65L129.038 36.018L108.548 47.6813L95.6431 39.0017L83.9901 45.9981L79.799 42.4332L70.0762 53.2203L58.0037 44.5308L44.5885 57.326Z" fill="#946614"/>
<path d="M83.9532 126.167C84.9478 129.846 88.3541 132.124 88.3541 132.124C88.3541 132.124 90.1481 128.438 89.1536 124.759C88.1591 121.08 84.7527 118.802 84.7527 118.802C84.7527 118.802 82.9587 122.488 83.9532 126.167Z" fill="#3F3D56"/>
<path d="M85.4146 125.376C88.1435 128.034 88.4768 132.121 88.4768 132.121C88.4768 132.121 84.3857 131.897 81.6567 129.239C78.9278 126.581 78.5945 122.494 78.5945 122.494C78.5945 122.494 82.6857 122.718 85.4146 125.376Z" fill="#201604"/>
<path opacity="0.4" d="M161.911 18.4235C165.826 18.4235 169 15.2477 169 11.3301C169 7.41252 165.826 4.23669 161.911 4.23669C157.997 4.23669 154.823 7.41252 154.823 11.3301C154.823 15.2477 157.997 18.4235 161.911 18.4235Z" fill="#946614"/>
<path opacity="0.4" d="M148.792 19.694C151.539 19.694 153.765 17.4662 153.765 14.718C153.765 11.9699 151.539 9.74203 148.792 9.74203C146.046 9.74203 143.82 11.9699 143.82 14.718C143.82 17.4662 146.046 19.694 148.792 19.694Z" fill="#201604"/>
<path opacity="0.4" d="M142.656 108.626C144.117 108.626 145.301 107.441 145.301 105.98C145.301 104.518 144.117 103.333 142.656 103.333C141.195 103.333 140.011 104.518 140.011 105.98C140.011 107.441 141.195 108.626 142.656 108.626Z" fill="#946614"/>
<path opacity="0.4" d="M97.5854 121.754C98.6956 121.754 99.5956 120.854 99.5956 119.743C99.5956 118.632 98.6956 117.731 97.5854 117.731C96.4752 117.731 95.5752 118.632 95.5752 119.743C95.5752 120.854 96.4752 121.754 97.5854 121.754Z" fill="#946614"/>
<path opacity="0.4" d="M90.8142 95.71C92.275 95.71 93.4592 94.525 93.4592 93.0632C93.4592 91.6014 92.275 90.4164 90.8142 90.4164C89.3534 90.4164 88.1693 91.6014 88.1693 93.0632C88.1693 94.525 89.3534 95.71 90.8142 95.71Z" fill="#946614"/>
<path d="M128.69 39.492C130.21 39.492 131.441 38.2596 131.441 36.7394C131.441 35.2191 130.21 33.9867 128.69 33.9867C127.171 33.9867 125.94 35.2191 125.94 36.7394C125.94 38.2596 127.171 39.492 128.69 39.492Z" fill="#201604"/>
<path d="M110.817 86.5977L108.485 86.857C108.485 86.857 107.449 91.5241 108.485 97.7468C109.522 103.969 110.817 110.192 110.817 110.192C110.817 110.192 111.854 130.416 112.372 130.675C112.89 130.935 117.554 132.49 117.813 130.935C118.072 129.379 118.072 93.8576 118.072 93.8576L121.7 110.97C121.7 110.97 122.218 132.49 123.254 132.49C124.291 132.49 127.659 132.231 127.659 130.416C127.659 128.601 128.436 104.747 128.436 104.747C128.436 104.747 128.177 87.1163 127.141 86.5977C126.104 86.0792 110.817 86.5977 110.817 86.5977Z" fill="#946614"/>
<path d="M112.89 129.898C112.89 129.898 110.558 129.638 110.04 129.898C109.522 130.157 108.744 131.972 110.04 133.009C111.335 134.046 114.704 135.602 115.74 135.602C116.459 135.57 117.164 135.393 117.813 135.083L117.295 130.675L112.89 129.898Z" fill="#2F2E41"/>
<path d="M123.254 131.194L123.513 134.824C123.513 134.824 126.882 135.342 127.141 134.824C127.4 134.305 129.991 133.009 130.25 132.75C130.509 132.49 130.768 129.638 129.213 129.379C127.659 129.12 127.141 129.898 127.141 129.898L123.254 131.194Z" fill="#2F2E41"/>
<path d="M101.49 64.8182C101.49 64.8182 95.2711 70.7817 96.0484 73.893C96.8257 77.0044 103.044 86.0792 103.044 86.0792C103.044 86.0792 109.004 89.1905 109.781 86.0792C110.558 82.9678 105.635 83.7457 105.635 83.7457L101.749 74.4116L106.153 68.1888L101.49 64.8182Z" fill="#FFB8B8"/>
<path d="M129.275 55.7456C129.275 55.7456 134.94 52.1003 134.809 49.5959C134.678 47.0915 131.263 39.1951 131.263 39.1951C131.263 39.1951 128.591 33.6369 127.529 35.9084C126.467 38.1799 128.925 40.5979 128.925 40.5979L130.512 48.3439L126.2 52.4599L129.275 55.7456Z" fill="#FFB8B8"/>
<path d="M115.222 50.5578C117.798 50.5578 119.886 48.4683 119.886 45.8907C119.886 43.3132 117.798 41.2237 115.222 41.2237C112.646 41.2237 110.558 43.3132 110.558 45.8907C110.558 48.4683 112.646 50.5578 115.222 50.5578Z" fill="#FFB8B8"/>
<path d="M112.89 48.7428L113.667 53.6691L119.368 52.632C119.368 52.632 119.109 47.7057 119.109 47.1871C119.109 46.6686 112.89 48.7428 112.89 48.7428Z" fill="#FFB8B8"/>
<path d="M112.631 53.6691C112.631 53.6691 119.109 52.1135 119.886 52.632C120.663 53.1506 124.55 53.6691 124.55 53.6691L128.954 60.4104L127.659 68.9667C127.659 68.9667 127.4 82.7085 127.918 85.0421C128.436 87.3756 131.286 87.6349 125.327 88.1534C119.368 88.672 118.331 87.8941 114.186 88.9313C110.04 89.9684 106.672 88.4127 107.708 87.3756C108.744 86.3385 110.558 69.7445 108.485 68.1888C106.412 66.6332 105.635 58.5955 105.635 58.5955C105.635 58.5955 112.631 54.9655 112.631 53.6691Z" fill="#F4F4F4"/>
<path d="M123.772 54.447L124.55 53.6691L126.104 52.1134C126.104 52.1134 131.157 54.3173 130.898 55.0952C130.639 55.873 128.954 60.4104 128.954 60.4104L126.622 61.1883L123.772 54.447Z" fill="#946614"/>
<path d="M108.744 59.114L105.635 58.5955C105.635 58.5955 103.303 61.1883 102.526 62.2254C101.749 63.2625 100.194 65.8553 100.194 65.8553L105.635 69.7446L109.781 65.3368L108.744 59.114Z" fill="#946614"/>
<path d="M116.85 40.2365L116.802 39.8627C116.485 39.8609 116.17 39.9104 115.868 40.0095C115.838 39.784 115.857 39.5545 115.926 39.3376C115.62 39.4164 115.328 39.5432 115.062 39.7135L114.874 39.0312L112.283 40.3086C111.354 40.7671 110.373 41.271 109.842 42.1616C109.249 43.1544 109.352 44.4303 109.757 45.5133C110.163 46.5964 110.836 47.5548 111.375 48.5775C111.58 49.0172 111.826 49.4365 112.11 49.8296C113.088 51.0492 114.991 51.2956 116.37 50.5595C116.894 50.3066 117.312 49.876 117.55 49.3441C117.65 49.0141 117.729 48.6779 117.786 48.3376C117.956 47.6407 118.154 46.202 118.72 45.7611C118.969 45.5671 119.462 46.2102 119.669 45.9713C120.199 45.3573 120.087 44.4105 119.758 43.6689C119.442 42.9242 119.073 42.2032 118.653 41.5117C118.475 41.2337 116.844 40.1917 116.85 40.2365Z" fill="#2F2E41"/>
</svg>
