<svg width="151" height="52" viewBox="0 0 151 52" fill="none" xmlns="http://www.w3.org/2000/svg">
<path d="M21.6165 42.6637C17.1437 42.6637 12.9457 40.9228 9.78072 37.7494C6.61572 34.5761 4.87936 30.367 4.87936 25.8825C4.87936 21.398 6.61572 17.1889 9.78072 14.0156C12.9457 10.8422 17.1437 9.1013 21.6165 9.1013C26.0673 9.1013 30.2653 10.8422 33.4193 13.9935C33.5402 14.1147 33.5732 14.302 33.4962 14.4563L30.9686 19.8994C30.9027 20.0317 30.7818 20.1198 30.628 20.1308C30.4851 20.1419 30.3422 20.0757 30.2543 19.9545C28.2982 17.0897 25.0672 15.3819 21.6055 15.3819C15.825 15.3819 11.1324 20.0978 11.1324 25.8825C11.1324 31.6672 15.836 36.3831 21.6055 36.3831C24.9793 36.3831 28.1663 34.7414 30.1224 31.9868C30.2104 31.8656 30.3422 31.7994 30.4961 31.8215C30.639 31.8325 30.7708 31.9207 30.8258 32.0529L33.3424 37.4519C33.4193 37.6062 33.3864 37.7935 33.2545 37.9147C30.1334 40.9779 25.9904 42.6637 21.6165 42.6637ZM21.6165 9.91667C12.8358 9.91667 5.6926 17.0787 5.6926 25.8825C5.6926 34.6863 12.8358 41.8483 21.6165 41.8483C25.6826 41.8483 29.529 40.3278 32.4852 37.5511L30.3862 33.0225C29.4191 34.2125 28.2103 35.2042 26.8585 35.9204C25.2541 36.7688 23.4408 37.2095 21.6165 37.2095C15.3854 37.2095 10.3192 32.13 10.3192 25.8825C10.3192 19.635 15.3854 14.5555 21.6165 14.5555C25.1112 14.5555 28.3861 16.1752 30.5291 18.9188L32.65 14.3682C29.6719 11.4923 25.7596 9.91667 21.6165 9.91667Z" fill="url(#paint0_linear)"/>
<path d="M18.8581 33.9811C18.8142 33.9811 18.7592 33.9701 18.7153 33.9591C17.5394 33.5293 16.4954 32.8572 15.6052 31.9647C15.0557 31.4138 14.5832 30.7857 14.1985 30.1136C14.1326 30.0034 14.1326 29.8602 14.1875 29.739L19.8032 17.6627C19.8582 17.5415 19.9681 17.4533 20.1 17.4313C20.6165 17.3321 21.144 17.2881 21.6715 17.2881C23.1771 17.2881 24.6497 17.6847 25.9464 18.423C26.1333 18.5331 26.1992 18.7535 26.1113 18.9519L19.2318 33.7387C19.1658 33.893 19.012 33.9811 18.8581 33.9811ZM15.0228 29.8822C15.3524 30.4221 15.7371 30.929 16.1877 31.3807C16.902 32.0969 17.7372 32.6589 18.6493 33.0445L25.1992 18.9519C24.1112 18.3899 22.9023 18.1034 21.6605 18.1034C21.2539 18.1034 20.8473 18.1365 20.4406 18.2026L15.0228 29.8822Z" fill="url(#paint1_linear)"/>
<path d="M34.1226 51.3684H5.35193C5.22005 51.3684 5.09917 51.3022 5.03324 51.181C4.9673 51.0598 4.95631 50.9166 5.01126 50.7844L9.506 40.5151C9.56094 40.4049 9.64886 40.3168 9.76974 40.2837C9.89063 40.2507 10.0115 40.2837 10.0994 40.3719C11.3962 41.5068 12.8358 42.4323 14.3744 43.1265L14.4073 43.1375C14.5063 43.1816 14.5832 43.2587 14.6161 43.3689C14.6491 43.4681 14.6491 43.5893 14.6052 43.6884L13.9897 45.0878H36.5074C36.6393 45.0878 36.7601 45.1539 36.8261 45.2751C36.892 45.3963 36.903 45.5395 36.8481 45.6718L34.4633 51.1259C34.4084 51.2802 34.2765 51.3684 34.1226 51.3684ZM5.95636 50.553H33.8809L35.9139 45.9142H13.3963C13.2644 45.9142 13.1435 45.8481 13.0776 45.7269C13.0117 45.6057 13.0007 45.4624 13.0556 45.3302L13.759 43.7325C12.4182 43.0934 11.1544 42.2891 10.0005 41.3415L5.95636 50.553Z" fill="url(#paint2_linear)"/>
<path d="M6.51683 13.7291C8.61584 11.0626 11.4182 8.95805 14.6601 7.71296L14.3964 4.90324C13.4842 5.21175 12.6051 5.58639 11.7369 6.02713C9.22026 7.28324 6.98938 9.00213 5.12115 11.1397C4.67057 11.6466 4.25297 12.1755 3.85735 12.7264L6.51683 13.7291Z" fill="url(#paint3_linear)"/>
<path d="M9.37411 3.63611L5.08817 3.50389L3.84635 7.60278L5.51676 7.87824C6.6377 6.93065 7.83557 6.06019 9.09937 5.29991L9.37411 3.63611Z" fill="url(#paint4_linear)"/>
<path d="M11.5391 3.96667L13.3304 2.6775L11.4072 0L10.6929 4.39639C10.8467 4.31926 10.9896 4.24213 11.1434 4.165C11.2753 4.09889 11.4072 4.03278 11.5391 3.96667Z" fill="url(#paint5_linear)"/>
<path d="M3.70348 2.5563L2.42869 0.782316L0.538483 7.02982L2.26385 7.3163L3.70348 2.5563Z" fill="url(#paint6_linear)"/>
<path d="M9.62687 2.04944L9.9126 0.330557L3.36281 0.132223L4.62661 1.89519L9.62687 2.04944Z" fill="url(#paint7_linear)"/>
<path d="M0 8.2088L1.92318 10.8863L3.49469 9.75139C3.76943 9.4649 4.05516 9.18944 4.34089 8.91398L0 8.2088Z" fill="url(#paint8_linear)"/>
<path d="M32.1544 31.2846L33.4731 31.1414V21.3349L32.2423 21.1476V20.5195H34.1105C34.3853 20.5195 34.7809 20.4975 35.2864 20.4534C35.7809 20.4094 36.1436 20.3873 36.3744 20.3873C37.836 20.3873 38.88 20.6297 39.4954 21.1256C40.1218 21.6214 40.4295 22.3706 40.4295 23.3954C40.4295 24.1446 40.2207 24.8168 39.8141 25.4228C39.3965 26.0288 38.836 26.4365 38.1327 26.6348C38.3965 26.8111 38.6712 27.0976 38.935 27.5053C39.2097 27.913 39.5394 28.4749 39.935 29.1911C40.2867 29.8192 40.5614 30.2819 40.7702 30.6015C40.979 30.91 41.1658 31.0863 41.3307 31.1194L41.9791 31.2846V31.9347H40.1878C40.0229 31.9347 39.8361 31.7584 39.6163 31.4169C39.3965 31.0643 39.0998 30.5023 38.7152 29.731C38.2976 28.8826 37.9569 28.2325 37.6821 27.7807C37.4074 27.329 37.1437 27.0315 36.8799 26.8772C35.6381 26.8772 34.9128 26.8772 34.7149 26.8662V31.1524L36.2974 31.2956V31.9568H32.1434V31.2846H32.1544ZM38.4734 25.4669C38.88 25.0261 39.0888 24.376 39.0888 23.5276C39.0888 22.7783 38.88 22.1944 38.4624 21.7867C38.0448 21.368 37.3085 21.1696 36.2755 21.1696C35.9128 21.1696 35.5611 21.1917 35.2205 21.2357C34.9787 21.2578 34.8139 21.2688 34.7479 21.2688V26.128C34.9347 26.139 35.2974 26.139 35.8469 26.139H36.814C37.5063 26.128 38.0668 25.9076 38.4734 25.4669Z" fill="url(#paint9_linear)"/>
<path d="M46.3639 27.5493L42.8253 21.368L41.8802 21.1806V20.5195H45.5397V21.1806L44.2539 21.3459L46.5727 25.6982L47.1222 26.9323L47.7156 25.6982L49.9355 21.3459L48.6498 21.1806V20.5195H51.9796V21.1806L50.9686 21.3459L47.6607 27.5273V31.1193L49.408 31.2736V31.9347H44.6605V31.2736L46.3639 31.1304V27.5493Z" fill="url(#paint10_linear)"/>
<path d="M53.9467 21.3569L52.7159 21.1917V20.5306H54.5731C54.7929 20.5306 55.0237 20.5195 55.2435 20.5085C55.4633 20.4975 55.6281 20.4865 55.727 20.4865C56.2545 20.4424 56.771 20.4204 57.2546 20.4204C58.6942 20.4204 59.7163 20.6848 60.3097 21.2247C60.9031 21.7646 61.2108 22.569 61.2108 23.6488C61.2108 24.4532 61.013 25.1583 60.6284 25.7533C60.2438 26.3483 59.7163 26.8001 59.0459 27.1086C58.3865 27.4171 57.6392 27.5824 56.826 27.5824C56.4963 27.5824 56.1666 27.5714 55.8259 27.5604C55.4853 27.5494 55.2765 27.5273 55.2105 27.5273V31.1414L57.3425 31.2956V31.9568H52.639V31.2956L53.9577 31.1524V21.3569H53.9467ZM56.859 26.8331C57.7381 26.8331 58.4525 26.5797 59.0239 26.0839C59.5844 25.5881 59.8701 24.7727 59.8701 23.6488C59.8701 22.7563 59.6283 22.1172 59.1448 21.7316C58.6613 21.3459 57.914 21.1586 56.8809 21.1586C56.5622 21.1586 56.2106 21.1807 55.8259 21.2247C55.5182 21.2468 55.3204 21.2578 55.2105 21.2578V26.7781C55.4633 26.8111 56.0128 26.8331 56.859 26.8331Z" fill="url(#paint11_linear)"/>
<path d="M66.1561 21.2247L63.2439 21.3129L62.7494 24.4311H61.9142L62.1779 20.5305H71.5081L71.6729 24.4311H70.8597L70.4311 21.3129L67.4749 21.2247V31.1524L69.6618 31.2956V31.9568H64.1451V31.2956L66.1561 31.1524V21.2247V21.2247Z" fill="url(#paint12_linear)"/>
<path d="M74.783 31.3838C74.0687 30.899 73.5302 30.2158 73.1675 29.3454C72.8049 28.4749 72.618 27.4612 72.618 26.3153C72.618 25.1363 72.8378 24.1006 73.2884 23.2081C73.739 22.3156 74.3544 21.6214 75.1237 21.1366C75.9039 20.6518 76.7611 20.4093 77.7172 20.4093C78.7282 20.4093 79.5964 20.6407 80.3107 21.1145C81.0361 21.5883 81.5745 22.2494 81.9482 23.1089C82.3218 23.9683 82.5087 24.982 82.5087 26.139C82.5087 27.329 82.2779 28.3757 81.8163 29.2793C81.3547 30.1828 80.7283 30.888 79.9481 31.3728C79.1568 31.8686 78.2887 32.111 77.3326 32.111C76.3435 32.111 75.4863 31.8686 74.783 31.3838ZM74.9698 22.4588C74.3214 23.3403 74.0027 24.6294 74.0027 26.3263C74.0027 27.3069 74.1456 28.1884 74.4203 28.9487C74.6951 29.72 75.1017 30.315 75.6292 30.7447C76.1567 31.1744 76.7941 31.3948 77.5304 31.3948C78.2447 31.3948 78.8711 31.1965 79.3986 30.7998C79.9261 30.4031 80.3437 29.8192 80.6404 29.0258C80.9371 28.2325 81.08 27.2739 81.08 26.139C81.08 25.1473 80.9371 24.2768 80.6624 23.5166C80.3877 22.7673 79.981 22.1723 79.4645 21.7536C78.937 21.3349 78.3106 21.1255 77.5743 21.1255C76.4864 21.1366 75.6182 21.5773 74.9698 22.4588Z" fill="url(#paint13_linear)"/>
<path d="M88.8167 21.3569L87.5309 21.1917V20.5305H91.608V21.1917L90.0805 21.3569V31.1524L94.4433 31.0312L95.3005 28.6292L96.0368 28.7504L95.4654 31.9457H87.4979V31.2846L88.8167 31.1414V21.3569Z" fill="url(#paint14_linear)"/>
<path d="M98.9381 30.8439C98.2567 30.0285 97.916 28.7724 97.916 27.0535V21.3569L96.7621 21.1917V20.5305H100.521V21.1917L99.2018 21.3569V27.1968C99.2018 28.6953 99.4656 29.7531 100.004 30.3811C100.543 31.0092 101.301 31.3177 102.279 31.3177C103.257 31.3177 104.004 30.9761 104.499 30.304C105.004 29.6319 105.246 28.6402 105.246 27.329V21.379L103.971 21.1917V20.5305H107.378V21.1917L106.213 21.3569V27.2519C106.213 28.8495 105.84 30.0506 105.103 30.8549C104.367 31.6593 103.378 32.0559 102.158 32.0559C100.696 32.067 99.6194 31.6593 98.9381 30.8439Z" fill="url(#paint15_linear)"/>
<path d="M112.466 26.172L109.235 21.379L108.059 21.1917V20.5305H112.345V21.1917L110.785 21.379L113.356 25.5109L115.895 21.368L114.521 21.2027V20.5416H118.181V21.2027L116.972 21.39L113.774 26.0288L117.258 31.1634L118.489 31.3067V31.9678H114.214V31.3067L115.719 31.1634L112.928 26.7119L110.246 31.1634L111.829 31.3067V31.9678H107.796V31.3067L109.125 31.1634L112.466 26.172Z" fill="url(#paint16_linear)"/>
<path d="M121.093 30.8439C120.412 30.0285 120.071 28.7724 120.071 27.0535V21.3569L118.917 21.1917V20.5305H122.676V21.1917L121.357 21.3569V27.1968C121.357 28.6953 121.621 29.7531 122.159 30.3811C122.698 31.0092 123.456 31.3177 124.434 31.3177C125.412 31.3177 126.159 30.9761 126.654 30.304C127.159 29.6319 127.401 28.6402 127.401 27.329V21.379L126.126 21.1917V20.5305H129.533V21.1917L128.368 21.3569V27.2519C128.368 28.8495 127.995 30.0506 127.258 30.8549C126.522 31.6593 125.533 32.0559 124.313 32.0559C122.851 32.067 121.774 31.6593 121.093 30.8439Z" fill="url(#paint17_linear)"/>
<path d="M130.588 31.2846L131.907 31.1414V21.3349L130.676 21.1476V20.5195H132.544C132.819 20.5195 133.215 20.4975 133.72 20.4534C134.215 20.4094 134.577 20.3873 134.808 20.3873C136.27 20.3873 137.314 20.6297 137.929 21.1256C138.556 21.6214 138.863 22.3706 138.863 23.3954C138.863 24.1446 138.654 24.8168 138.248 25.4228C137.83 26.0288 137.27 26.4365 136.566 26.6348C136.83 26.8111 137.105 27.0976 137.369 27.5053C137.643 27.913 137.973 28.4749 138.369 29.1911C138.72 29.8192 138.995 30.2819 139.204 30.6015C139.413 30.91 139.6 31.0863 139.764 31.1194L140.413 31.2846V31.9347H138.621C138.457 31.9347 138.27 31.7584 138.05 31.4169C137.83 31.0643 137.533 30.5023 137.149 29.731C136.731 28.8826 136.391 28.2325 136.116 27.7807C135.841 27.329 135.577 27.0315 135.314 26.8772C134.072 26.8772 133.346 26.8772 133.149 26.8662V31.1524L134.731 31.2956V31.9568H130.577V31.2846H130.588ZM136.907 25.4669C137.314 25.0261 137.523 24.376 137.523 23.5276C137.523 22.7783 137.314 22.1944 136.896 21.7867C136.479 21.368 135.742 21.1696 134.709 21.1696C134.347 21.1696 133.995 21.1917 133.654 21.2357C133.412 21.2578 133.248 21.2688 133.182 21.2688V26.128C133.368 26.139 133.731 26.139 134.281 26.139H135.248C135.94 26.128 136.489 25.9076 136.907 25.4669Z" fill="url(#paint18_linear)"/>
<path d="M144.798 27.5493L141.259 21.368L140.314 21.1806V20.5195H143.973V21.1806L142.688 21.3459L145.006 25.6982L145.556 26.9323L146.149 25.6982L148.369 21.3459L147.083 21.1806V20.5195H150.413V21.1806L149.402 21.3459L146.094 27.5273V31.1193L147.842 31.2736V31.9347H143.105V31.2736L144.809 31.1304V27.5493H144.798Z" fill="url(#paint19_linear)"/>
<defs>
<linearGradient id="paint0_linear" x1="4.88116" y1="25.8806" x2="33.5469" y2="25.8806" gradientUnits="userSpaceOnUse">
<stop stop-color="#B78628"/>
<stop offset="0.1232" stop-color="#BB8A2A"/>
<stop offset="0.248" stop-color="#C69631"/>
<stop offset="0.3736" stop-color="#D8AA3D"/>
<stop offset="0.499" stop-color="#F2C74E"/>
<stop offset="0.5" stop-color="#F2C74E"/>
<stop offset="0.6194" stop-color="#DAAD3F"/>
<stop offset="0.7524" stop-color="#C79732"/>
<stop offset="0.8812" stop-color="#BB8A2B"/>
<stop offset="1" stop-color="#B78628"/>
</linearGradient>
<linearGradient id="paint1_linear" x1="14.1511" y1="25.6321" x2="26.1487" y2="25.6321" gradientUnits="userSpaceOnUse">
<stop stop-color="#B78628"/>
<stop offset="0.1232" stop-color="#BB8A2A"/>
<stop offset="0.248" stop-color="#C69631"/>
<stop offset="0.3736" stop-color="#D8AA3D"/>
<stop offset="0.499" stop-color="#F2C74E"/>
<stop offset="0.5" stop-color="#F2C74E"/>
<stop offset="0.6194" stop-color="#DAAD3F"/>
<stop offset="0.7524" stop-color="#C79732"/>
<stop offset="0.8812" stop-color="#BB8A2B"/>
<stop offset="1" stop-color="#B78628"/>
</linearGradient>
<linearGradient id="paint2_linear" x1="4.97087" y1="45.8248" x2="36.896" y2="45.8248" gradientUnits="userSpaceOnUse">
<stop stop-color="#B78628"/>
<stop offset="0.1232" stop-color="#BB8A2A"/>
<stop offset="0.248" stop-color="#C69631"/>
<stop offset="0.3736" stop-color="#D8AA3D"/>
<stop offset="0.499" stop-color="#F2C74E"/>
<stop offset="0.5" stop-color="#F2C74E"/>
<stop offset="0.6194" stop-color="#DAAD3F"/>
<stop offset="0.7524" stop-color="#C79732"/>
<stop offset="0.8812" stop-color="#BB8A2B"/>
<stop offset="1" stop-color="#B78628"/>
</linearGradient>
<linearGradient id="paint3_linear" x1="3.85965" y1="9.31515" x2="14.6573" y2="9.31515" gradientUnits="userSpaceOnUse">
<stop stop-color="#B78628"/>
<stop offset="0.1232" stop-color="#BB8A2A"/>
<stop offset="0.248" stop-color="#C69631"/>
<stop offset="0.3736" stop-color="#D8AA3D"/>
<stop offset="0.499" stop-color="#F2C74E"/>
<stop offset="0.5" stop-color="#F2C74E"/>
<stop offset="0.6194" stop-color="#DAAD3F"/>
<stop offset="0.7524" stop-color="#C79732"/>
<stop offset="0.8812" stop-color="#BB8A2B"/>
<stop offset="1" stop-color="#B78628"/>
</linearGradient>
<linearGradient id="paint4_linear" x1="3.8447" y1="5.68768" x2="9.36993" y2="5.68768" gradientUnits="userSpaceOnUse">
<stop stop-color="#B78628"/>
<stop offset="0.1232" stop-color="#BB8A2A"/>
<stop offset="0.248" stop-color="#C69631"/>
<stop offset="0.3736" stop-color="#D8AA3D"/>
<stop offset="0.499" stop-color="#F2C74E"/>
<stop offset="0.5" stop-color="#F2C74E"/>
<stop offset="0.6194" stop-color="#DAAD3F"/>
<stop offset="0.7524" stop-color="#C79732"/>
<stop offset="0.8812" stop-color="#BB8A2B"/>
<stop offset="1" stop-color="#B78628"/>
</linearGradient>
<linearGradient id="paint5_linear" x1="10.6909" y1="2.19367" x2="13.3299" y2="2.19367" gradientUnits="userSpaceOnUse">
<stop stop-color="#B78628"/>
<stop offset="0.1232" stop-color="#BB8A2A"/>
<stop offset="0.248" stop-color="#C69631"/>
<stop offset="0.3736" stop-color="#D8AA3D"/>
<stop offset="0.499" stop-color="#F2C74E"/>
<stop offset="0.5" stop-color="#F2C74E"/>
<stop offset="0.6194" stop-color="#DAAD3F"/>
<stop offset="0.7524" stop-color="#C79732"/>
<stop offset="0.8812" stop-color="#BB8A2B"/>
<stop offset="1" stop-color="#B78628"/>
</linearGradient>
<linearGradient id="paint6_linear" x1="0.542219" y1="4.04967" x2="3.70221" y2="4.04967" gradientUnits="userSpaceOnUse">
<stop stop-color="#B78628"/>
<stop offset="0.1232" stop-color="#BB8A2A"/>
<stop offset="0.248" stop-color="#C69631"/>
<stop offset="0.3736" stop-color="#D8AA3D"/>
<stop offset="0.499" stop-color="#F2C74E"/>
<stop offset="0.5" stop-color="#F2C74E"/>
<stop offset="0.6194" stop-color="#DAAD3F"/>
<stop offset="0.7524" stop-color="#C79732"/>
<stop offset="0.8812" stop-color="#BB8A2B"/>
<stop offset="1" stop-color="#B78628"/>
</linearGradient>
<linearGradient id="paint7_linear" x1="3.35865" y1="1.08989" x2="9.90969" y2="1.08989" gradientUnits="userSpaceOnUse">
<stop stop-color="#B78628"/>
<stop offset="0.1232" stop-color="#BB8A2A"/>
<stop offset="0.248" stop-color="#C69631"/>
<stop offset="0.3736" stop-color="#D8AA3D"/>
<stop offset="0.499" stop-color="#F2C74E"/>
<stop offset="0.5" stop-color="#F2C74E"/>
<stop offset="0.6194" stop-color="#DAAD3F"/>
<stop offset="0.7524" stop-color="#C79732"/>
<stop offset="0.8812" stop-color="#BB8A2B"/>
<stop offset="1" stop-color="#B78628"/>
</linearGradient>
<linearGradient id="paint8_linear" x1="-0.000648386" y1="9.55344" x2="4.33767" y2="9.55344" gradientUnits="userSpaceOnUse">
<stop stop-color="#B78628"/>
<stop offset="0.1232" stop-color="#BB8A2A"/>
<stop offset="0.248" stop-color="#C69631"/>
<stop offset="0.3736" stop-color="#D8AA3D"/>
<stop offset="0.499" stop-color="#F2C74E"/>
<stop offset="0.5" stop-color="#F2C74E"/>
<stop offset="0.6194" stop-color="#DAAD3F"/>
<stop offset="0.7524" stop-color="#C79732"/>
<stop offset="0.8812" stop-color="#BB8A2B"/>
<stop offset="1" stop-color="#B78628"/>
</linearGradient>
<linearGradient id="paint9_linear" x1="37.0771" y1="16.2765" x2="37.0771" y2="32.7675" gradientUnits="userSpaceOnUse">
<stop stop-color="#B78628"/>
<stop offset="0.1232" stop-color="#BB8A2A"/>
<stop offset="0.248" stop-color="#C69631"/>
<stop offset="0.3736" stop-color="#D8AA3D"/>
<stop offset="0.499" stop-color="#F2C74E"/>
<stop offset="0.5" stop-color="#F2C74E"/>
<stop offset="0.6194" stop-color="#DAAD3F"/>
<stop offset="0.7524" stop-color="#C79732"/>
<stop offset="0.8812" stop-color="#BB8A2B"/>
<stop offset="1" stop-color="#B78628"/>
</linearGradient>
<linearGradient id="paint10_linear" x1="46.9218" y1="16.2765" x2="46.9218" y2="32.7674" gradientUnits="userSpaceOnUse">
<stop stop-color="#B78628"/>
<stop offset="0.1232" stop-color="#BB8A2A"/>
<stop offset="0.248" stop-color="#C69631"/>
<stop offset="0.3736" stop-color="#D8AA3D"/>
<stop offset="0.499" stop-color="#F2C74E"/>
<stop offset="0.5" stop-color="#F2C74E"/>
<stop offset="0.6194" stop-color="#DAAD3F"/>
<stop offset="0.7524" stop-color="#C79732"/>
<stop offset="0.8812" stop-color="#BB8A2B"/>
<stop offset="1" stop-color="#B78628"/>
</linearGradient>
<linearGradient id="paint11_linear" x1="56.9199" y1="16.2765" x2="56.9199" y2="32.7675" gradientUnits="userSpaceOnUse">
<stop stop-color="#B78628"/>
<stop offset="0.1232" stop-color="#BB8A2A"/>
<stop offset="0.248" stop-color="#C69631"/>
<stop offset="0.3736" stop-color="#D8AA3D"/>
<stop offset="0.499" stop-color="#F2C74E"/>
<stop offset="0.5" stop-color="#F2C74E"/>
<stop offset="0.6194" stop-color="#DAAD3F"/>
<stop offset="0.7524" stop-color="#C79732"/>
<stop offset="0.8812" stop-color="#BB8A2B"/>
<stop offset="1" stop-color="#B78628"/>
</linearGradient>
<linearGradient id="paint12_linear" x1="66.7952" y1="16.2765" x2="66.7952" y2="32.7675" gradientUnits="userSpaceOnUse">
<stop stop-color="#B78628"/>
<stop offset="0.1232" stop-color="#BB8A2A"/>
<stop offset="0.248" stop-color="#C69631"/>
<stop offset="0.3736" stop-color="#D8AA3D"/>
<stop offset="0.499" stop-color="#F2C74E"/>
<stop offset="0.5" stop-color="#F2C74E"/>
<stop offset="0.6194" stop-color="#DAAD3F"/>
<stop offset="0.7524" stop-color="#C79732"/>
<stop offset="0.8812" stop-color="#BB8A2B"/>
<stop offset="1" stop-color="#B78628"/>
</linearGradient>
<linearGradient id="paint13_linear" x1="77.5591" y1="16.2765" x2="77.5591" y2="32.7675" gradientUnits="userSpaceOnUse">
<stop stop-color="#B78628"/>
<stop offset="0.1232" stop-color="#BB8A2A"/>
<stop offset="0.248" stop-color="#C69631"/>
<stop offset="0.3736" stop-color="#D8AA3D"/>
<stop offset="0.499" stop-color="#F2C74E"/>
<stop offset="0.5" stop-color="#F2C74E"/>
<stop offset="0.6194" stop-color="#DAAD3F"/>
<stop offset="0.7524" stop-color="#C79732"/>
<stop offset="0.8812" stop-color="#BB8A2B"/>
<stop offset="1" stop-color="#B78628"/>
</linearGradient>
<linearGradient id="paint14_linear" x1="91.7708" y1="16.2765" x2="91.7708" y2="32.7675" gradientUnits="userSpaceOnUse">
<stop stop-color="#B78628"/>
<stop offset="0.1232" stop-color="#BB8A2A"/>
<stop offset="0.248" stop-color="#C69631"/>
<stop offset="0.3736" stop-color="#D8AA3D"/>
<stop offset="0.499" stop-color="#F2C74E"/>
<stop offset="0.5" stop-color="#F2C74E"/>
<stop offset="0.6194" stop-color="#DAAD3F"/>
<stop offset="0.7524" stop-color="#C79732"/>
<stop offset="0.8812" stop-color="#BB8A2B"/>
<stop offset="1" stop-color="#B78628"/>
</linearGradient>
<linearGradient id="paint15_linear" x1="102.083" y1="16.2765" x2="102.083" y2="32.7675" gradientUnits="userSpaceOnUse">
<stop stop-color="#B78628"/>
<stop offset="0.1232" stop-color="#BB8A2A"/>
<stop offset="0.248" stop-color="#C69631"/>
<stop offset="0.3736" stop-color="#D8AA3D"/>
<stop offset="0.499" stop-color="#F2C74E"/>
<stop offset="0.5" stop-color="#F2C74E"/>
<stop offset="0.6194" stop-color="#DAAD3F"/>
<stop offset="0.7524" stop-color="#C79732"/>
<stop offset="0.8812" stop-color="#BB8A2B"/>
<stop offset="1" stop-color="#B78628"/>
</linearGradient>
<linearGradient id="paint16_linear" x1="113.123" y1="16.2765" x2="113.123" y2="32.7675" gradientUnits="userSpaceOnUse">
<stop stop-color="#B78628"/>
<stop offset="0.1232" stop-color="#BB8A2A"/>
<stop offset="0.248" stop-color="#C69631"/>
<stop offset="0.3736" stop-color="#D8AA3D"/>
<stop offset="0.499" stop-color="#F2C74E"/>
<stop offset="0.5" stop-color="#F2C74E"/>
<stop offset="0.6194" stop-color="#DAAD3F"/>
<stop offset="0.7524" stop-color="#C79732"/>
<stop offset="0.8812" stop-color="#BB8A2B"/>
<stop offset="1" stop-color="#B78628"/>
</linearGradient>
<linearGradient id="paint17_linear" x1="124.239" y1="16.2765" x2="124.239" y2="32.7675" gradientUnits="userSpaceOnUse">
<stop stop-color="#B78628"/>
<stop offset="0.1232" stop-color="#BB8A2A"/>
<stop offset="0.248" stop-color="#C69631"/>
<stop offset="0.3736" stop-color="#D8AA3D"/>
<stop offset="0.499" stop-color="#F2C74E"/>
<stop offset="0.5" stop-color="#F2C74E"/>
<stop offset="0.6194" stop-color="#DAAD3F"/>
<stop offset="0.7524" stop-color="#C79732"/>
<stop offset="0.8812" stop-color="#BB8A2B"/>
<stop offset="1" stop-color="#B78628"/>
</linearGradient>
<linearGradient id="paint18_linear" x1="135.509" y1="16.2765" x2="135.509" y2="32.7675" gradientUnits="userSpaceOnUse">
<stop stop-color="#B78628"/>
<stop offset="0.1232" stop-color="#BB8A2A"/>
<stop offset="0.248" stop-color="#C69631"/>
<stop offset="0.3736" stop-color="#D8AA3D"/>
<stop offset="0.499" stop-color="#F2C74E"/>
<stop offset="0.5" stop-color="#F2C74E"/>
<stop offset="0.6194" stop-color="#DAAD3F"/>
<stop offset="0.7524" stop-color="#C79732"/>
<stop offset="0.8812" stop-color="#BB8A2B"/>
<stop offset="1" stop-color="#B78628"/>
</linearGradient>
<linearGradient id="paint19_linear" x1="145.354" y1="16.2765" x2="145.354" y2="32.7674" gradientUnits="userSpaceOnUse">
<stop stop-color="#B78628"/>
<stop offset="0.1232" stop-color="#BB8A2A"/>
<stop offset="0.248" stop-color="#C69631"/>
<stop offset="0.3736" stop-color="#D8AA3D"/>
<stop offset="0.499" stop-color="#F2C74E"/>
<stop offset="0.5" stop-color="#F2C74E"/>
<stop offset="0.6194" stop-color="#DAAD3F"/>
<stop offset="0.7524" stop-color="#C79732"/>
<stop offset="0.8812" stop-color="#BB8A2B"/>
<stop offset="1" stop-color="#B78628"/>
</linearGradient>
</defs>
</svg>
